<!-- Generated by IcoMoon.io -->
<svg version="1.1" xmlns="http://www.w3.org/2000/svg" width="32" height="32" viewBox="0 0 32 32">
<title>icon-clock</title>
<path fill="#8bacd9" d="M15.633 3.778c-6.931 0-12.55 5.619-12.55 12.55s5.619 12.55 12.55 12.55v0c6.931 0 12.55-5.619 12.55-12.55s-5.619-12.55-12.55-12.55v0zM20.653 17.583h-5.020c-0.693 0-1.256-0.562-1.256-1.256v0-5.020c0-0.693 0.562-1.256 1.256-1.256s1.256 0.562 1.256 1.256v0 3.765h3.765c0.693 0 1.256 0.562 1.256 1.256s-0.562 1.256-1.256 1.256v0z"></path>
</svg>
